<svg width="20" height="18" viewBox="0 0 20 18" fill="none" xmlns="http://www.w3.org/2000/svg">
<path id="Vector - 0" fill-rule="evenodd" clip-rule="evenodd" d="M18.25 0.75H1.75C0.921573 0.75 0.25 1.42157 0.25 2.25V15.75C0.25 16.5784 0.921573 17.25 1.75 17.25H18.25C19.0784 17.25 19.75 16.5784 19.75 15.75V2.25C19.75 1.42157 19.0784 0.75 18.25 0.75V0.75ZM1.75 5.25H9.25V12.75H1.75V5.25ZM10.75 3.75V2.25H13.75V3.75H10.75ZM9.25 3.75H6.25V2.25H9.25V3.75ZM9.25 14.25V15.75H6.25V14.25H9.25ZM10.75 14.25H13.75V15.75H10.75V14.25ZM10.75 12.75V5.25H18.25V12.75H10.75ZM18.25 3.75H15.25V2.25H18.25V3.75ZM4.75 2.25V3.75H1.75V2.25H4.75ZM1.75 14.25H4.75V15.75H1.75V14.25ZM18.25 15.75H15.25V14.25H18.25V15.75V15.75Z" fill="#1C170D"/>
</svg>
