<svg width="22" height="20" viewBox="0 0 22 20" fill="none" xmlns="http://www.w3.org/2000/svg">
<path id="Vector - 0" fill-rule="evenodd" clip-rule="evenodd" d="M20.7322 1.01781C20.2388 0.524329 19.5691 0.247634 18.8713 0.248865C18.1734 0.250097 17.5048 0.529153 17.0131 1.02437L0.712813 17.7437C0.522648 17.9377 0.452199 18.2193 0.528639 18.4799C0.605079 18.7406 0.816462 18.9395 1.08125 19C2.15719 19.2493 3.25805 19.3752 4.3625 19.375C7.49563 19.375 10.6325 18.355 13.5809 16.3553C16.5575 14.3369 18.2825 12.0569 18.3547 11.9603C18.5789 11.6617 18.5493 11.2437 18.2853 10.9797L16.5284 9.22094L20.7472 4.72094C21.758 3.69108 21.7513 2.03945 20.7322 1.01781V1.01781ZM16.7394 11.5591C15.5507 12.92 14.1924 14.1229 12.6978 15.1384C9.46625 17.3181 6.13531 18.2041 2.77531 17.7784L12.7409 7.55969L16.7394 11.5591ZM19.6719 3.67188L19.655 3.68969L15.4634 8.15875L13.7881 6.48156L18.08 2.07531C18.5201 1.63521 19.2336 1.63521 19.6737 2.07531C20.1139 2.51541 20.1139 3.22896 19.6737 3.66906L19.6719 3.67188Z" fill="#1C170D"/>
</svg>
