<svg width="19" height="16" viewBox="0 0 19 16" fill="none" xmlns="http://www.w3.org/2000/svg">
<path id="Vector - 0" fill-rule="evenodd" clip-rule="evenodd" d="M3.25 8C3.25 8.82843 2.57843 9.5 1.75 9.5C0.921573 9.5 0.25 8.82843 0.25 8C0.25 7.17157 0.921573 6.5 1.75 6.5C2.57843 6.5 3.25 7.17157 3.25 8V8ZM1.75 0.5C0.921573 0.5 0.25 1.17157 0.25 2C0.25 2.82843 0.921573 3.5 1.75 3.5C2.57843 3.5 3.25 2.82843 3.25 2C3.25 1.17157 2.57843 0.5 1.75 0.5V0.5ZM1.75 12.5C0.921573 12.5 0.25 13.1716 0.25 14C0.25 14.8284 0.921573 15.5 1.75 15.5C2.57843 15.5 3.25 14.8284 3.25 14C3.25 13.1716 2.57843 12.5 1.75 12.5V12.5ZM18.25 6.5H6.25C5.83579 6.5 5.5 6.83579 5.5 7.25V8.75C5.5 9.16421 5.83579 9.5 6.25 9.5H18.25C18.6642 9.5 19 9.16421 19 8.75V7.25C19 6.83579 18.6642 6.5 18.25 6.5V6.5ZM18.25 0.5H6.25C5.83579 0.5 5.5 0.835786 5.5 1.25V2.75C5.5 3.16421 5.83579 3.5 6.25 3.5H18.25C18.6642 3.5 19 3.16421 19 2.75V1.25C19 0.835786 18.6642 0.5 18.25 0.5V0.5ZM18.25 12.5H6.25C5.83579 12.5 5.5 12.8358 5.5 13.25V14.75C5.5 15.1642 5.83579 15.5 6.25 15.5H18.25C18.6642 15.5 19 15.1642 19 14.75V13.25C19 12.8358 18.6642 12.5 18.25 12.5V12.5Z" fill="#1C170D"/>
</svg>
