<svg width="20" height="18" viewBox="0 0 20 18" fill="none" xmlns="http://www.w3.org/2000/svg">
<path id="Vector - 0" fill-rule="evenodd" clip-rule="evenodd" d="M15.25 3.75H1.75C0.921573 3.75 0.25 4.42157 0.25 5.25V15.75C0.25 16.5784 0.921573 17.25 1.75 17.25H15.25C16.0784 17.25 16.75 16.5784 16.75 15.75V5.25C16.75 4.42157 16.0784 3.75 15.25 3.75V3.75ZM15.25 15.75H1.75V5.25H15.25V15.75V15.75ZM19.75 2.25V13.5C19.75 13.9142 19.4142 14.25 19 14.25C18.5858 14.25 18.25 13.9142 18.25 13.5V2.25H4C3.58579 2.25 3.25 1.91421 3.25 1.5C3.25 1.08579 3.58579 0.75 4 0.75H18.25C19.0784 0.75 19.75 1.42157 19.75 2.25V2.25Z" fill="#1C170D"/>
</svg>
