<svg width="22" height="22" viewBox="0 0 22 22" fill="none" xmlns="http://www.w3.org/2000/svg">
<path id="Vector - 0" fill-rule="evenodd" clip-rule="evenodd" d="M21.0856 11.0787L14 7.53687V3.5C14 1.84315 12.6569 0.5 11 0.5C9.34315 0.5 8 1.84315 8 3.5V7.53687L0.914375 11.0787C0.660232 11.2059 0.499797 11.4658 0.5 11.75V14.75C0.500124 14.9746 0.600936 15.1874 0.774709 15.3298C0.948481 15.4721 1.17692 15.5291 1.39719 15.485L8 14.165V15.9397L6.71938 17.2194C6.57876 17.3601 6.49984 17.551 6.5 17.75V20.75C6.49957 20.9996 6.62335 21.2331 6.8302 21.3728C7.03705 21.5125 7.29985 21.5402 7.53125 21.4466L11 20.0581L14.4688 21.4466C14.7001 21.5402 14.963 21.5125 15.1698 21.3728C15.3766 21.2331 15.5004 20.9996 15.5 20.75V17.75C15.5002 17.551 15.4212 17.3601 15.2806 17.2194L14 15.9397V14.165L20.6028 15.485C20.8231 15.5291 21.0515 15.4721 21.2253 15.3298C21.3991 15.1874 21.4999 14.9746 21.5 14.75V11.75C21.5002 11.4658 21.3398 11.2059 21.0856 11.0787V11.0787ZM20 13.835L13.3972 12.515C13.1769 12.4709 12.9485 12.5279 12.7747 12.6702C12.6009 12.8126 12.5001 13.0254 12.5 13.25V16.25C12.4998 16.449 12.5788 16.6399 12.7194 16.7806L14 18.0603V19.6419L11.2812 18.5534C11.1025 18.482 10.9031 18.482 10.7244 18.5534L8 19.6419V18.0603L9.28063 16.7806C9.42124 16.6399 9.50016 16.449 9.5 16.25V13.25C9.49988 13.0254 9.39906 12.8126 9.22529 12.6702C9.05152 12.5279 8.82308 12.4709 8.60281 12.515L2 13.835V12.2131L9.08562 8.67125C9.33977 8.54408 9.5002 8.28419 9.5 8V3.5C9.5 2.67157 10.1716 2 11 2C11.8284 2 12.5 2.67157 12.5 3.5V8C12.4998 8.28419 12.6602 8.54408 12.9144 8.67125L20 12.2131V13.835Z" fill="#1C170D"/>
</svg>
