<svg width="22" height="18" viewBox="0 0 22 18" fill="none" xmlns="http://www.w3.org/2000/svg">
<path id="Vector - 0" fill-rule="evenodd" clip-rule="evenodd" d="M21.5 9C21.5 9.41421 21.1642 9.75 20.75 9.75H18.2131L14.6713 16.8356C14.5441 17.0898 14.2842 17.2502 14 17.25H13.9625C13.6652 17.2353 13.4048 17.0462 13.2987 16.7681L7.93906 2.69625L4.9325 9.31031C4.81085 9.57798 4.54402 9.74989 4.25 9.75H1.25C0.835786 9.75 0.5 9.41421 0.5 9C0.5 8.58579 0.835786 8.25 1.25 8.25H3.76719L7.3175 0.439687C7.44266 0.164091 7.72121 -0.00926106 8.02374 0.000167608C8.32628 0.00959628 8.5935 0.199957 8.70125 0.482812L14.0928 14.6391L17.0788 8.66625C17.2054 8.41138 17.4654 8.25015 17.75 8.25H20.75C21.1642 8.25 21.5 8.58579 21.5 9V9Z" fill="#1C170D"/>
</svg>
